<?xml version="1.0" encoding="UTF-8"?>
<!--
  Signal K plugin icon for signalk-crows-nest.

  Family identity (shared across @NearlCrews Signal K plugins): rounded
  square with a deep-ocean gradient and three stacked stylized wave lines.
  Per-project differentiation: a bottom-right circle badge in a
  project-specific colour with a 2-3 shape glyph. This badge is the only
  region that varies between sibling plugins.

  This variant's badge: crimson red (#C62828) with a crow's-nest
  silhouette: a thick mast, a horizontal yardarm cross-tree, and a
  rounded barrel sitting on top of the yardarm. Reads as "lookout"
  at thumbnail size, matching the project name and the plugin's
  hazard-alarm role.

  Sibling badges already in use: yellow (Virtual Weather thundercloud),
  orange (NMEA 2000 Emitter radiating arcs), violet (OpenRouter
  Companion routing graph). Red keeps the family visually separable
  at thumbnail size.
-->
<svg xmlns="http://www.w3.org/2000/svg" viewBox="0 0 512 512" width="512" height="512" role="img" aria-label="Crow's Nest plugin icon">
  <defs>
    <linearGradient id="bg" x1="0" y1="0" x2="0" y2="1">
      <stop offset="0" stop-color="#0E4D6B"/>
      <stop offset="1" stop-color="#1A8DAB"/>
    </linearGradient>
  </defs>

  <!-- Rounded-square background, deep-ocean gradient -->
  <rect width="512" height="512" rx="96" ry="96" fill="url(#bg)"/>

  <!-- Family motif: three stacked wave lines centered in the canvas -->
  <g fill="none" stroke="#FFFFFF" stroke-width="20" stroke-linecap="round" stroke-linejoin="round" opacity="0.94">
    <path d="M 80,176 q 44,-36 88,0 t 88,0 t 88,0 t 88,0"/>
    <path d="M 80,256 q 44,-36 88,0 t 88,0 t 88,0 t 88,0"/>
    <path d="M 80,336 q 44,-36 88,0 t 88,0 t 88,0 t 88,0"/>
  </g>

  <!-- Project badge: bottom-right circle (crimson for lookout / alarms) -->
  <circle cx="388" cy="388" r="84" fill="#C62828" stroke="#FFFFFF" stroke-width="8"/>

  <!--
    Badge glyph: crow's-nest silhouette. Four shapes for read at
    thumbnail size:
      - mast (thick vertical bar) running below the yardarm
      - yardarm (horizontal cross-tree) at mast height
      - barrel / nest (dome-topped rectangle) sitting on the yardarm
      - lookout's head (small white disc) poking out the top of the
        barrel: gives the barrel its "container with someone inside"
        read instead of letting it flatten into a sign or microphone
        silhouette
    Centered on the badge centre (388, 388). Drawn in the family glyph
    dark (#1B3A4B) so it reads as a single silhouette against the red.
  -->
  <g fill="#1B3A4B">
    <rect x="384" y="380" width="8" height="54" rx="2"/>
    <rect x="350" y="378" width="76" height="8" rx="3"/>
    <path d="M 358 378 L 358 358 Q 358 338 378 338 L 398 338 Q 418 338 418 358 L 418 378 Z"/>
  </g>
  <circle cx="388" cy="346" r="7" fill="#FFFFFF"/>
</svg>
